<svg t="1778169931949" class="icon" viewBox="0 0 1024 1024" version="1.1" xmlns="http://www.w3.org/2000/svg" p-id="18726" width="200" height="200"><path d="M200.704 696.32v200.704c0 57.344 49.152 106.496 106.496 106.496h528.384c57.344 0 106.496-49.152 106.496-106.496V126.976C942.08 69.632 892.928 20.48 835.584 20.48H307.2C249.856 20.48 200.704 69.632 200.704 126.976v180.224h151.552V212.992c0-24.576 20.48-40.96 40.96-40.96h348.16c24.576 0 40.96 16.384 40.96 40.96v593.92c0 24.576-16.384 40.96-40.96 40.96H397.312c-20.48 0-40.96-16.384-40.96-40.96V696.32H200.704z" p-id="18727" fill="#ffffff"></path><path d="M86.016 417.792v163.84c0 16.384 16.384 32.768 32.768 32.768h319.488v73.728c0 20.48 24.576 32.768 40.96 16.384l196.608-188.416c8.192-8.192 8.192-24.576 0-32.768l-196.608-188.416c-16.384-16.384-40.96-4.096-40.96 16.384v73.728H118.784c-20.48 4.096-32.768 16.384-32.768 32.768z" p-id="18728" fill="#ffffff"></path></svg>