<svg t="1778169049778" class="icon" viewBox="0 0 1024 1024" version="1.1" xmlns="http://www.w3.org/2000/svg" p-id="12587" width="200" height="200"><path d="M512 0C229.29 0 0 229.248 0 512c0 226.219 146.688 418.133 350.165 485.845C375.723 1002.581 384 986.71 384 973.227v-95.318c-142.421 30.976-172.075-60.416-172.075-60.416-23.296-59.178-56.874-74.922-56.874-74.922-46.464-31.787 3.541-31.104 3.541-31.104 51.413 3.584 78.464 52.778 78.464 52.778 45.653 78.251 119.765 55.638 148.992 42.539 4.565-33.067 17.835-55.68 32.512-68.437-113.707-13.014-233.259-56.918-233.259-253.056 0-55.936 20.011-101.59 52.736-137.43-5.29-12.928-22.826-65.024 4.992-135.509 0 0 43.008-13.739 140.843 52.48A491.05 491.05 0 0 1 512 247.595c43.52 0.213 87.339 5.888 128.256 17.237 97.75-66.219 140.672-52.48 140.672-52.48 27.861 70.528 10.325 122.624 5.035 135.51 32.853 35.84 52.693 81.535 52.693 137.429 0 196.65-119.765 239.957-233.77 252.629C623.231 753.792 640 784.939 640 832.725v140.502c0 13.61 8.192 29.61 34.176 24.576C877.483 930.005 1024 738.133 1024 512 1024 229.248 794.752 0 512 0z" fill="#FFFFFF" p-id="12588"></path></svg>