<svg t="1778169763790" class="icon" viewBox="0 0 1177 1024" version="1.1" xmlns="http://www.w3.org/2000/svg" p-id="15754" width="200" height="200"><path d="M461.312 460.544c-193.0752 8.9088-348.4672 112.2816-348.4672 240.9984s156.0576 225.2288 348.416 216.32c193.0752-8.9088 349.184-129.3824 349.184-258.0992 0-128.6656-156.1088-208.128-349.184-199.168z m131.4304 323.84c-58.88 75.9808-175.9232 113.664-289.5872 52.0192-54.0672-29.44-52.0192-86.9376-52.0192-86.9376s-22.5792-181.4016 171.8272-204.032c194.4064-22.528 229.3248 162.9696 169.7792 238.9504z m-130.048-121.856c-12.3392 8.8576-15.104 26.0096-8.192 36.9664 6.144 10.9056 21.8624 12.288 33.4848 3.4304 12.3392-9.6256 16.384-26.0096 10.24-36.9664-6.144-10.9568-21.1968-13.7216-35.5328-3.4304z m-91.7504 25.2928c-36.352 3.4304-62.3104 35.6352-62.3104 65.7408 0 30.1056 29.44 51.3536 65.024 47.2064 36.3008-4.096 65.7408-32.1536 65.7408-62.2592 0-30.8224-26.6752-54.784-68.4544-50.688z m611.9936 56.832c-79.36 169.1136-341.6064 251.2384-536.0128 235.52C262.144 965.7856 25.2416 904.192 0.5632 681.0112c0 0-13.0048-101.376 84.8896-232.0896 0 0 141.0048-197.12 305.3056-253.3376 164.3008-56.1152 183.4496 39.0656 183.4496 94.5152-8.8576 47.2064-25.2928 75.264 36.352 56.1152 0 0 161.536-74.6496 227.9424-8.192 53.4016 53.4016 8.9088 127.3344 8.9088 127.3344s-21.9136 24.6272 23.296 33.536c47.2064 10.24 191.6416 76.6976 112.2304 245.76z m-159.488-466.2272a31.3856 31.3856 0 0 1-31.488-31.4368c0-17.8688 14.336-32.256 31.488-32.256 0 0 197.888-36.2496 174.592 176.64 0 1.3824-0.0512 2.048-0.6656 3.4816a31.5904 31.5904 0 0 1-30.8224 26.624 32 32 0 0 1-32.1536-31.4368c-0.0512-0.6656 31.4368-143.0528-110.9504-111.616z m335.4624 170.496c-5.4784 36.2496-23.296 39.0144-44.544 39.0144-25.2928 0-45.824-15.7184-45.824-41.7792 0-21.8624 8.9088-44.544 8.9088-44.544 2.7136-9.5232 23.9616-67.072-14.3872-153.2928-70.5536-118.4256-212.224-119.808-229.376-113.664-17.0496 6.912-41.728 10.2912-41.728 10.2912a46.0288 46.0288 0 0 1-45.8752-46.592c0-21.1968 14.336-38.9632 33.536-44.4416 0 0 0.7168-0.6656 1.3824-0.6656 1.3824 0 2.7648-1.4336 4.096-2.0992 19.8656-4.096 90.368-17.7664 158.8736-1.3312 121.856 28.1088 290.2528 146.4832 214.9376 399.104z" p-id="15755" fill="#ffffff"></path></svg>