<svg t="1778169625697" class="icon" viewBox="0 0 1024 1024" version="1.1" xmlns="http://www.w3.org/2000/svg" p-id="13593" width="200" height="200"><path d="M911.530667 367.232s-24.917333-191.829333-448.426667-72.96c18.133333-31.232 26.794667-51.456 26.794667-51.456L384.085333 213.333333s-42.666667 137.984-118.741333 202.24c0 0 73.6 42.154667 72.917333 40.96 21.12-20.949333 40.106667-42.197333 56.405334-62.890666 16.938667-7.253333 33.109333-14.165333 49.066666-20.565334-19.626667 34.816-51.2 87.210667-82.858666 120.234667l44.586666 38.528s30.293333-28.885333 63.445334-63.701333h37.845333v64.298666H359.381333v51.541334h147.370667v123.264c-1.792 0-3.712 0-5.589333-0.170667-16.170667-0.768-41.557333-3.413333-51.456-18.944-12.117333-18.858667-3.2-53.589333-2.474667-74.794667H345.344l-3.584 1.877334s-37.333333 165.504 107.52 161.792c135.68 3.712 213.248-37.461333 250.624-65.706667l14.933333 54.741333 83.584-34.517333-56.661333-137.216-67.925333 20.906667 12.714666 47.018666c-17.408 12.928-37.376 22.613333-59.093333 29.525334v-107.776h144.042667v-51.541334h-144.042667v-64.298666h144.554667V416.64h-256.725334c18.517333-22.272 33.109333-42.794667 36.778667-55.765333l-44.629333-12.032c192-68.096 298.88-56.362667 297.941333 55.296v294.144s11.306667 100.992-105.472 93.738666l-63.232-13.44-14.933333 59.392s273.024 77.312 295.338666-130.474666c22.314667-207.829333-5.546667-340.266667-5.546666-340.266667z m-743.125334 18.986667l-47.701333 72.490666 87.808 54.186667s58.752 29.653333 30.848 85.12C213.248 650.752 85.333333 766.037333 85.333333 766.037333l114.517334 70.826667c79.146667-170.325333 74.069333-147.712 93.994666-208.810667 20.437333-62.506667 24.874667-110.165333-9.856-144.725333-44.544-44.245333-49.408-48.426667-115.626666-97.109333zM186.197333 213.333333a67.242667 67.242667 0 1 1 0 134.442667 67.242667 67.242667 0 0 1 0-134.442667z" fill="#FFFFFF" p-id="13594"></path></svg>